<svg width="64" height="36" viewBox="0 0 64 36" fill="none" xmlns="http://www.w3.org/2000/svg">
<rect x="0.78125" width="33.2188" height="30" fill="#0582FF" fill-opacity="0.2"/>
<path d="M29.132 32.54C27.212 32.54 25.532 32.138 24.092 31.334C22.652 30.53 21.53 29.408 20.726 27.968C19.922 26.528 19.52 24.848 19.52 22.928V15.152C19.52 13.232 19.922 11.552 20.726 10.112C21.53 8.672 22.652 7.55 24.092 6.746C25.532 5.942 27.212 5.54 29.132 5.54C31.052 5.54 32.732 5.942 34.172 6.746C35.612 7.55 36.734 8.672 37.538 10.112C38.342 11.552 38.744 13.232 38.744 15.152V22.928C38.744 24.848 38.342 26.528 37.538 27.968C36.734 29.408 35.612 30.53 34.172 31.334C32.732 32.138 31.052 32.54 29.132 32.54ZM29.132 27.896C29.996 27.896 30.776 27.692 31.472 27.284C32.168 26.876 32.72 26.324 33.128 25.628C33.536 24.932 33.74 24.152 33.74 23.288V14.756C33.74 13.892 33.536 13.112 33.128 12.416C32.72 11.72 32.168 11.168 31.472 10.76C30.776 10.352 29.996 10.148 29.132 10.148C28.268 10.148 27.488 10.352 26.792 10.76C26.096 11.168 25.544 11.72 25.136 12.416C24.728 13.112 24.524 13.892 24.524 14.756V23.288C24.524 24.152 24.728 24.932 25.136 25.628C25.544 26.324 26.096 26.876 26.792 27.284C27.488 27.692 28.268 27.896 29.132 27.896ZM47.1978 32V11.408L42.3378 14.396V8.996L47.1978 6.08H52.2018V32H47.1978Z" fill="#001233"/>
</svg>
