<svg width="62" height="36" viewBox="0 0 62 36" fill="none" xmlns="http://www.w3.org/2000/svg">
<rect x="0.78125" width="33.2188" height="30" fill="#0582FF" fill-opacity="0.2"/>
<path d="M29.132 32.54C27.212 32.54 25.532 32.138 24.092 31.334C22.652 30.53 21.53 29.408 20.726 27.968C19.922 26.528 19.52 24.848 19.52 22.928V15.152C19.52 13.232 19.922 11.552 20.726 10.112C21.53 8.672 22.652 7.55 24.092 6.746C25.532 5.942 27.212 5.54 29.132 5.54C31.052 5.54 32.732 5.942 34.172 6.746C35.612 7.55 36.734 8.672 37.538 10.112C38.342 11.552 38.744 13.232 38.744 15.152V22.928C38.744 24.848 38.342 26.528 37.538 27.968C36.734 29.408 35.612 30.53 34.172 31.334C32.732 32.138 31.052 32.54 29.132 32.54ZM29.132 27.896C29.996 27.896 30.776 27.692 31.472 27.284C32.168 26.876 32.72 26.324 33.128 25.628C33.536 24.932 33.74 24.152 33.74 23.288V14.756C33.74 13.892 33.536 13.112 33.128 12.416C32.72 11.72 32.168 11.168 31.472 10.76C30.776 10.352 29.996 10.148 29.132 10.148C28.268 10.148 27.488 10.352 26.792 10.76C26.096 11.168 25.544 11.72 25.136 12.416C24.728 13.112 24.524 13.892 24.524 14.756V23.288C24.524 24.152 24.728 24.932 25.136 25.628C25.544 26.324 26.096 26.876 26.792 27.284C27.488 27.692 28.268 27.896 29.132 27.896ZM41.9778 31.964V27.716L52.8498 18.068C53.6658 17.348 54.2418 16.67 54.5778 16.034C54.9138 15.398 55.0818 14.804 55.0818 14.252C55.0818 13.46 54.9198 12.758 54.5958 12.146C54.2718 11.522 53.8158 11.036 53.2278 10.688C52.6398 10.328 51.9498 10.148 51.1578 10.148C50.3298 10.148 49.5978 10.34 48.9618 10.724C48.3378 11.096 47.8518 11.594 47.5038 12.218C47.1558 12.83 46.9938 13.496 47.0178 14.216H41.9778C41.9778 12.44 42.3678 10.904 43.1478 9.608C43.9278 8.312 45.0138 7.31 46.4058 6.602C47.7978 5.894 49.4178 5.54 51.2658 5.54C52.9578 5.54 54.4698 5.912 55.8018 6.656C57.1458 7.388 58.2018 8.414 58.9698 9.734C59.7378 11.054 60.1218 12.584 60.1218 14.324C60.1218 15.608 59.9418 16.676 59.5818 17.528C59.2218 18.368 58.6878 19.148 57.9798 19.868C57.2718 20.576 56.4018 21.38 55.3698 22.28L48.3498 28.436L47.9538 27.356H60.1218V31.964H41.9778Z" fill="#001233"/>
</svg>
