<svg width="69" height="36" viewBox="0 0 69 36" fill="none" xmlns="http://www.w3.org/2000/svg">
<rect x="0.78125" width="33.2188" height="30" fill="#0582FF" fill-opacity="0.2"/>
<path d="M29.132 32.54C27.212 32.54 25.532 32.138 24.092 31.334C22.652 30.53 21.53 29.408 20.726 27.968C19.922 26.528 19.52 24.848 19.52 22.928V15.152C19.52 13.232 19.922 11.552 20.726 10.112C21.53 8.672 22.652 7.55 24.092 6.746C25.532 5.942 27.212 5.54 29.132 5.54C31.052 5.54 32.732 5.942 34.172 6.746C35.612 7.55 36.734 8.672 37.538 10.112C38.342 11.552 38.744 13.232 38.744 15.152V22.928C38.744 24.848 38.342 26.528 37.538 27.968C36.734 29.408 35.612 30.53 34.172 31.334C32.732 32.138 31.052 32.54 29.132 32.54ZM29.132 27.896C29.996 27.896 30.776 27.692 31.472 27.284C32.168 26.876 32.72 26.324 33.128 25.628C33.536 24.932 33.74 24.152 33.74 23.288V14.756C33.74 13.892 33.536 13.112 33.128 12.416C32.72 11.72 32.168 11.168 31.472 10.76C30.776 10.352 29.996 10.148 29.132 10.148C28.268 10.148 27.488 10.352 26.792 10.76C26.096 11.168 25.544 11.72 25.136 12.416C24.728 13.112 24.524 13.892 24.524 14.756V23.288C24.524 24.152 24.728 24.932 25.136 25.628C25.544 26.324 26.096 26.876 26.792 27.284C27.488 27.692 28.268 27.896 29.132 27.896ZM50.2578 32.468C48.9618 32.468 47.7258 32.21 46.5498 31.694C45.3738 31.166 44.3478 30.428 43.4718 29.48C42.6078 28.532 41.9898 27.416 41.6178 26.132L46.3698 24.872C46.6218 25.82 47.1138 26.558 47.8458 27.086C48.5898 27.602 49.3938 27.86 50.2578 27.86C51.0018 27.86 51.6798 27.68 52.2918 27.32C52.9158 26.96 53.4078 26.474 53.7678 25.862C54.1398 25.25 54.3258 24.572 54.3258 23.828C54.3258 22.712 53.9418 21.758 53.1738 20.966C52.4178 20.162 51.4458 19.76 50.2578 19.76C49.8978 19.76 49.5498 19.814 49.2138 19.922C48.8778 20.018 48.5538 20.156 48.2418 20.336L46.0458 16.484L54.2898 9.644L54.6498 10.688H42.6258V6.08H58.8258V10.688L52.4178 16.88L52.3818 15.512C53.8698 15.74 55.1238 16.262 56.1438 17.078C57.1758 17.882 57.9558 18.878 58.4838 20.066C59.0238 21.242 59.2938 22.496 59.2938 23.828C59.2938 25.46 58.8798 26.93 58.0518 28.238C57.2238 29.534 56.1258 30.566 54.7578 31.334C53.3898 32.09 51.8898 32.468 50.2578 32.468Z" fill="#001233"/>
</svg>
