<svg width="35" height="35" viewBox="0 0 35 35" fill="none" xmlns="http://www.w3.org/2000/svg">
<path d="M21.4521 23.1583L15.7938 17.4999L21.4521 11.8416C21.5871 11.7066 21.6942 11.5463 21.7673 11.3699C21.8403 11.1935 21.8779 11.0044 21.8779 10.8135C21.8779 10.6225 21.8403 10.4335 21.7673 10.2571C21.6942 10.0807 21.5871 9.92038 21.4521 9.78536C21.3171 9.65035 21.1568 9.54325 20.9804 9.47018C20.804 9.39711 20.6149 9.3595 20.424 9.3595C20.233 9.3595 20.0439 9.39711 19.8675 9.47018C19.6911 9.54325 19.5309 9.65035 19.3958 9.78536L12.7021 16.4791C12.5669 16.614 12.4596 16.7743 12.3865 16.9507C12.3133 17.1271 12.2756 17.3162 12.2756 17.5072C12.2756 17.6982 12.3133 17.8874 12.3865 18.0638C12.4596 18.2402 12.5669 18.4004 12.7021 18.5354L19.3958 25.2291C19.9646 25.7979 20.8833 25.7979 21.4521 25.2291C22.0063 24.6604 22.0208 23.727 21.4521 23.1583Z" fill="black"/>
</svg>
