<svg width="87" height="88" viewBox="0 0 87 88" fill="none" xmlns="http://www.w3.org/2000/svg">
<rect x="6" y="9" width="81" height="79" rx="8" fill="white"/>
<rect x="0.5" y="0.5" width="80" height="78" rx="7.5" fill="#1B1B1B" stroke="white"/>
<path d="M31.128 50.48C28.824 50.48 26.8347 49.9787 25.16 48.976C23.496 47.9733 22.2107 46.5707 21.304 44.768C20.408 42.9653 19.96 40.8693 19.96 38.48C19.96 36.0907 20.408 33.9947 21.304 32.192C22.2107 30.3893 23.496 28.9867 25.16 27.984C26.8347 26.9813 28.824 26.48 31.128 26.48C33.7733 26.48 35.992 27.136 37.784 28.448C39.5867 29.76 40.856 31.536 41.592 33.776L37.208 34.992C36.7813 33.5947 36.0613 32.512 35.048 31.744C34.0347 30.9653 32.728 30.576 31.128 30.576C29.6667 30.576 28.4453 30.9013 27.464 31.552C26.4933 32.2027 25.7627 33.12 25.272 34.304C24.7813 35.488 24.536 36.88 24.536 38.48C24.536 40.08 24.7813 41.472 25.272 42.656C25.7627 43.84 26.4933 44.7573 27.464 45.408C28.4453 46.0587 29.6667 46.384 31.128 46.384C32.728 46.384 34.0347 45.9947 35.048 45.216C36.0613 44.4373 36.7813 43.3547 37.208 41.968L41.592 43.184C40.856 45.424 39.5867 47.2 37.784 48.512C35.992 49.824 33.7733 50.48 31.128 50.48ZM52.891 50.48C51.1523 50.48 49.627 50.0907 48.315 49.312C47.003 48.5333 45.979 47.4613 45.243 46.096C44.5177 44.72 44.155 43.1413 44.155 41.36C44.155 39.5573 44.5283 37.9733 45.275 36.608C46.0217 35.232 47.051 34.16 48.363 33.392C49.675 32.624 51.1843 32.24 52.891 32.24C54.6297 32.24 56.155 32.6293 57.467 33.408C58.7897 34.1867 59.819 35.264 60.555 36.64C61.291 38.0053 61.659 39.5787 61.659 41.36C61.659 43.152 61.2857 44.736 60.539 46.112C59.803 47.4773 58.7737 48.5493 57.451 49.328C56.139 50.096 54.619 50.48 52.891 50.48ZM52.891 46.416C54.2883 46.416 55.3283 45.9467 56.011 45.008C56.7043 44.0587 57.051 42.8427 57.051 41.36C57.051 39.824 56.699 38.5973 55.995 37.68C55.3017 36.7627 54.267 36.304 52.891 36.304C51.9417 36.304 51.163 36.5173 50.555 36.944C49.947 37.3707 49.4937 37.9627 49.195 38.72C48.907 39.4773 48.763 40.3573 48.763 41.36C48.763 42.9067 49.1097 44.1387 49.803 45.056C50.507 45.9627 51.5363 46.416 52.891 46.416Z" fill="white"/>
</svg>
