<svg width="18" height="20" viewBox="0 0 18 20" fill="none" xmlns="http://www.w3.org/2000/svg">
<path d="M14.389 17.5H6.45472V5.83337H14.389V17.5ZM14.389 4.16671H6.45472C6.07212 4.16671 5.70519 4.3423 5.43466 4.65486C5.16412 4.96742 5.01213 5.39135 5.01213 5.83337V17.5C5.01213 17.9421 5.16412 18.366 5.43466 18.6786C5.70519 18.9911 6.07212 19.1667 6.45472 19.1667H14.389C14.7716 19.1667 15.1385 18.9911 15.409 18.6786C15.6796 18.366 15.8316 17.9421 15.8316 17.5V5.83337C15.8316 5.39135 15.6796 4.96742 15.409 4.65486C15.1385 4.3423 14.7716 4.16671 14.389 4.16671ZM12.2251 0.833374H3.56954C3.18694 0.833374 2.82002 1.00897 2.54948 1.32153C2.27894 1.63409 2.12695 2.05801 2.12695 2.50004V14.1667H3.56954V2.50004H12.2251V0.833374Z" fill="black"/>
</svg>
