<svg width="64" height="65" viewBox="0 0 64 65" fill="none" xmlns="http://www.w3.org/2000/svg">
<circle cx="32" cy="32.5" r="32" fill="white"/>
<path d="M37.7772 28.0207C38.4945 28.0207 39.076 27.4392 39.076 26.7219C39.076 26.0046 38.4945 25.4231 37.7772 25.4231C37.0598 25.4231 36.4783 26.0046 36.4783 26.7219C36.4783 27.4392 37.0598 28.0207 37.7772 28.0207Z" fill="black"/>
<path d="M31.9991 26.9421C30.8999 26.9421 29.8253 27.2681 28.9113 27.8788C27.9973 28.4895 27.285 29.3575 26.8643 30.3731C26.4436 31.3887 26.3336 32.5062 26.548 33.5843C26.7625 34.6624 27.2918 35.6528 28.0691 36.43C28.8464 37.2073 29.8367 37.7367 30.9148 37.9511C31.9929 38.1656 33.1104 38.0555 34.126 37.6348C35.1416 37.2142 36.0096 36.5018 36.6203 35.5878C37.231 34.6738 37.557 33.5993 37.557 32.5C37.557 31.026 36.9714 29.6123 35.9291 28.57C34.8868 27.5277 33.4732 26.9421 31.9991 26.9421ZM31.9991 36.1079C31.2855 36.1079 30.588 35.8963 29.9947 35.4998C29.4014 35.1034 28.939 34.5399 28.6659 33.8807C28.3928 33.2214 28.3214 32.496 28.4606 31.7962C28.5998 31.0963 28.9434 30.4535 29.448 29.9489C29.9525 29.4443 30.5954 29.1007 31.2953 28.9615C31.9951 28.8223 32.7205 28.8937 33.3798 29.1668C34.039 29.4399 34.6025 29.9023 34.9989 30.4956C35.3954 31.0889 35.607 31.7865 35.607 32.5C35.607 33.4569 35.2268 34.3745 34.5502 35.0512C33.8736 35.7278 32.956 36.1079 31.9991 36.1079Z" fill="black"/>
<path d="M31.9991 23.6266C34.889 23.6266 35.2318 23.6374 36.3727 23.6897C37.059 23.6978 37.7387 23.8238 38.3823 24.0622C38.8492 24.2423 39.2732 24.5182 39.6271 24.8721C39.981 25.2259 40.2569 25.65 40.437 26.1169C40.6753 26.7604 40.8013 27.4402 40.8095 28.1264C40.8618 29.2674 40.8726 29.6102 40.8726 32.5009C40.8726 35.3917 40.8618 35.7327 40.8095 36.8737C40.8013 37.5599 40.6753 38.2396 40.437 38.8832C40.2569 39.3501 39.981 39.7742 39.6271 40.128C39.2732 40.4819 38.8492 40.7578 38.3823 40.9379C37.7387 41.1762 37.059 41.3022 36.3727 41.3104C35.2318 41.3627 34.889 41.3735 31.9991 41.3735C29.1092 41.3735 28.7665 41.3627 27.6255 41.3104C26.9393 41.3022 26.2595 41.1762 25.616 40.9379C25.149 40.7578 24.725 40.4819 24.3711 40.128C24.0173 39.7742 23.7414 39.3501 23.5613 38.8832C23.3229 38.2396 23.1969 37.5599 23.1888 36.8737C23.1365 35.7327 23.1256 35.3899 23.1256 32.5C23.1256 29.6102 23.1365 29.2674 23.1888 28.1264C23.1969 27.4402 23.3229 26.7604 23.5613 26.1169C23.7414 25.65 24.0173 25.2259 24.3711 24.8721C24.725 24.5182 25.149 24.2423 25.616 24.0622C26.2595 23.8238 26.9393 23.6978 27.6255 23.6897C28.7665 23.6374 29.1092 23.6266 31.9991 23.6266ZM31.9991 21.6765C29.0596 21.6765 28.6907 21.6891 27.5362 21.7415C26.6386 21.7596 25.7505 21.9298 24.9097 22.2447C24.1906 22.5228 23.5375 22.9481 22.9923 23.4933C22.4472 24.0384 22.0219 24.6915 21.7438 25.4106C21.4287 26.2517 21.2586 27.1401 21.2405 28.038C21.1882 29.1926 21.1756 29.5597 21.1756 32.5C21.1756 35.4404 21.1882 35.8084 21.2405 36.9629C21.2587 37.8606 21.4288 38.7487 21.7438 39.5895C22.0219 40.3086 22.4472 40.9616 22.9923 41.5068C23.5375 42.052 24.1906 42.4773 24.9097 42.7553C25.7508 43.0704 26.6392 43.2406 27.5371 43.2586C28.6916 43.3109 29.0596 43.3236 31.9991 43.3236C34.9386 43.3236 35.3075 43.3109 36.462 43.2586C37.36 43.2406 38.2484 43.0704 39.0894 42.7553C39.8086 42.4773 40.4616 42.052 41.0068 41.5068C41.552 40.9616 41.9773 40.3086 42.2553 39.5895C42.5701 38.7483 42.74 37.86 42.7577 36.962C42.81 35.8075 42.8227 35.4404 42.8227 32.5C42.8227 29.5597 42.81 29.1917 42.7577 28.0371C42.7396 27.1395 42.5694 26.2514 42.2544 25.4106C41.9764 24.6915 41.5511 24.0384 41.0059 23.4933C40.4607 22.9481 39.8077 22.5228 39.0885 22.2447C38.2474 21.93 37.359 21.7601 36.4611 21.7424C35.3066 21.6882 34.9395 21.6765 31.9991 21.6765Z" fill="black"/>
</svg>
