<svg width="87" height="88" viewBox="0 0 87 88" fill="none" xmlns="http://www.w3.org/2000/svg">
<rect x="6" y="9" width="81" height="79" rx="8" fill="white"/>
<rect x="0.5" y="0.5" width="80" height="78" rx="7.5" fill="#1B1B1B" stroke="white"/>
<path d="M19.24 52V28.96H23.144L30.76 44.256L38.376 28.96H42.28V52H38.216V38.24L31.528 52H29.992L23.304 38.24V52H19.24ZM54.8033 52.48C53.0326 52.48 51.4699 52.1013 50.1153 51.344C48.7713 50.576 47.7153 49.5253 46.9473 48.192C46.1899 46.848 45.8113 45.312 45.8113 43.584C45.8113 41.696 46.1846 40.0533 46.9313 38.656C47.6779 37.2587 48.7073 36.176 50.0193 35.408C51.3313 34.6293 52.8406 34.24 54.5473 34.24C56.3606 34.24 57.9019 34.6667 59.1713 35.52C60.4406 36.3733 61.3793 37.5733 61.9873 39.12C62.5953 40.6667 62.8086 42.4853 62.6273 44.576H58.3233V42.976C58.3233 41.216 58.0406 39.952 57.4753 39.184C56.9206 38.4053 56.0086 38.016 54.7393 38.016C53.2566 38.016 52.1633 38.4693 51.4593 39.376C50.7659 40.272 50.4193 41.6 50.4193 43.36C50.4193 44.9707 50.7659 46.2187 51.4593 47.104C52.1633 47.9787 53.1926 48.416 54.5473 48.416C55.4006 48.416 56.1313 48.2293 56.7393 47.856C57.3473 47.4827 57.8113 46.944 58.1313 46.24L62.4833 47.488C61.8326 49.0667 60.8033 50.2933 59.3953 51.168C57.9979 52.0427 56.4673 52.48 54.8033 52.48ZM49.0753 44.576V41.344H60.5312V44.576H49.0753Z" fill="white"/>
</svg>
