<svg width="94" height="95" viewBox="0 0 94 95" fill="none" xmlns="http://www.w3.org/2000/svg">
<rect x="6.26666" y="9.84766" width="87.7333" height="85.0476" rx="8" fill="#1B1B1B"/>
<rect x="0.5" y="0.5" width="86.7333" height="84.0476" rx="7.5" fill="white" stroke="#1B1B1B"/>
<path d="M22.159 55.1143V32.0743H26.063L33.679 47.3703L41.295 32.0743H45.199V55.1143H41.135V41.3543L34.447 55.1143H32.911L26.223 41.3543V55.1143H22.159ZM57.7223 55.5943C55.9516 55.5943 54.389 55.2156 53.0343 54.4583C51.6903 53.6903 50.6343 52.6396 49.8663 51.3063C49.109 49.9623 48.7303 48.4263 48.7303 46.6983C48.7303 44.8103 49.1036 43.1676 49.8503 41.7703C50.597 40.3729 51.6263 39.2903 52.9383 38.5223C54.2503 37.7436 55.7596 37.3543 57.4663 37.3543C59.2796 37.3543 60.821 37.7809 62.0903 38.6343C63.3596 39.4876 64.2983 40.6876 64.9063 42.2343C65.5143 43.7809 65.7276 45.5996 65.5463 47.6903H61.2423V46.0903C61.2423 44.3303 60.9596 43.0663 60.3943 42.2983C59.8396 41.5196 58.9276 41.1303 57.6583 41.1303C56.1756 41.1303 55.0823 41.5836 54.3783 42.4903C53.685 43.3863 53.3383 44.7143 53.3383 46.4743C53.3383 48.0849 53.685 49.3329 54.3783 50.2183C55.0823 51.0929 56.1116 51.5303 57.4663 51.5303C58.3196 51.5303 59.0503 51.3436 59.6583 50.9703C60.2663 50.5969 60.7303 50.0583 61.0503 49.3543L65.4023 50.6023C64.7516 52.1809 63.7223 53.4076 62.3143 54.2823C60.917 55.1569 59.3863 55.5943 57.7223 55.5943ZM51.9943 47.6903V44.4583H63.4503V47.6903H51.9943Z" fill="black"/>
</svg>
