<svg width="87" height="88" viewBox="0 0 87 88" fill="none" xmlns="http://www.w3.org/2000/svg">
<rect x="6" y="9" width="81" height="79" rx="8" fill="white"/>
<rect x="0.5" y="0.5" width="80" height="78" rx="7.5" fill="#1B1B1B" stroke="white"/>
<path d="M30.584 50V31.024H23.32V26.96H42.2V31.024H34.936V50H30.584ZM49.617 50.48C47.441 50.48 45.681 49.9893 44.337 49.008C43.0037 48.016 42.193 46.6187 41.905 44.816L46.353 44.144C46.5343 44.9547 46.9343 45.5893 47.553 46.048C48.1823 46.5067 48.977 46.736 49.937 46.736C50.7263 46.736 51.3343 46.5867 51.761 46.288C52.1877 45.9787 52.401 45.552 52.401 45.008C52.401 44.6667 52.3157 44.3947 52.145 44.192C51.9743 43.9787 51.5903 43.7707 50.993 43.568C50.4063 43.3653 49.489 43.0987 48.241 42.768C46.833 42.4053 45.7077 42 44.865 41.552C44.0223 41.104 43.4143 40.5707 43.041 39.952C42.6677 39.3227 42.481 38.5653 42.481 37.68C42.481 36.5707 42.7637 35.6107 43.329 34.8C43.8943 33.9787 44.689 33.3493 45.713 32.912C46.7477 32.464 47.9637 32.24 49.361 32.24C50.7157 32.24 51.9157 32.448 52.961 32.864C54.0063 33.28 54.849 33.872 55.489 34.64C56.1397 35.408 56.5397 36.3147 56.689 37.36L52.241 38.16C52.1663 37.52 51.889 37.0133 51.409 36.64C50.929 36.2667 50.2783 36.048 49.457 35.984C48.657 35.9307 48.0117 36.0373 47.521 36.304C47.041 36.5707 46.801 36.9547 46.801 37.456C46.801 37.7547 46.9023 38.0053 47.105 38.208C47.3183 38.4107 47.7503 38.6187 48.401 38.832C49.0623 39.0453 50.065 39.3227 51.409 39.664C52.721 40.0053 53.7717 40.4053 54.561 40.864C55.361 41.312 55.9423 41.856 56.305 42.496C56.6677 43.1253 56.849 43.888 56.849 44.784C56.849 46.5547 56.209 47.9467 54.929 48.96C53.649 49.9733 51.8783 50.48 49.617 50.48Z" fill="white"/>
</svg>
