<svg width="94" height="95" viewBox="0 0 94 95" fill="none" xmlns="http://www.w3.org/2000/svg">
<rect x="6.26672" y="9.84766" width="87.7333" height="85.0476" rx="8" fill="#1B1B1B"/>
<rect x="0.5" y="0.5" width="86.7333" height="84.0476" rx="7.5" fill="white" stroke="#1B1B1B"/>
<path d="M33.4405 55.1143V36.1383H26.1765V32.0743H45.0565V36.1383H37.7925V55.1143H33.4405ZM52.4735 55.5943C50.2975 55.5943 48.5375 55.1036 47.1935 54.1223C45.8602 53.1303 45.0495 51.7329 44.7615 49.9303L49.2095 49.2583C49.3909 50.0689 49.7909 50.7036 50.4095 51.1623C51.0389 51.6209 51.8335 51.8503 52.7935 51.8503C53.5829 51.8503 54.1909 51.7009 54.6175 51.4023C55.0442 51.0929 55.2575 50.6663 55.2575 50.1223C55.2575 49.7809 55.1722 49.5089 55.0015 49.3063C54.8309 49.0929 54.4469 48.8849 53.8495 48.6823C53.2629 48.4796 52.3455 48.2129 51.0975 47.8823C49.6895 47.5196 48.5642 47.1143 47.7215 46.6663C46.8789 46.2183 46.2709 45.6849 45.8975 45.0663C45.5242 44.4369 45.3375 43.6796 45.3375 42.7943C45.3375 41.6849 45.6202 40.7249 46.1855 39.9143C46.7509 39.0929 47.5455 38.4636 48.5695 38.0263C49.6042 37.5783 50.8202 37.3543 52.2175 37.3543C53.5722 37.3543 54.7722 37.5623 55.8175 37.9783C56.8629 38.3943 57.7055 38.9863 58.3455 39.7543C58.9962 40.5223 59.3962 41.4289 59.5455 42.4743L55.0975 43.2743C55.0229 42.6343 54.7455 42.1276 54.2655 41.7543C53.7855 41.3809 53.1349 41.1623 52.3135 41.0983C51.5135 41.0449 50.8682 41.1516 50.3775 41.4183C49.8975 41.6849 49.6575 42.0689 49.6575 42.5703C49.6575 42.8689 49.7589 43.1196 49.9615 43.3223C50.1749 43.5249 50.6069 43.7329 51.2575 43.9463C51.9189 44.1596 52.9215 44.4369 54.2655 44.7783C55.5775 45.1196 56.6282 45.5196 57.4175 45.9783C58.2175 46.4263 58.7989 46.9703 59.1615 47.6103C59.5242 48.2396 59.7055 49.0023 59.7055 49.8983C59.7055 51.6689 59.0655 53.0609 57.7855 54.0743C56.5055 55.0876 54.7349 55.5943 52.4735 55.5943Z" fill="black"/>
</svg>
