<svg width="64" height="65" viewBox="0 0 64 65" fill="none" xmlns="http://www.w3.org/2000/svg">
<circle cx="32" cy="32.5" r="32" fill="white"/>
<path d="M29.3315 35.7156L35.4374 32.1862L29.3315 28.6568V35.7156ZM42.9315 26.5039C43.0844 27.0568 43.1903 27.798 43.2609 28.7392C43.3433 29.6803 43.3786 30.4921 43.3786 31.198L43.4492 32.1862C43.4492 34.7627 43.2609 36.6568 42.9315 37.8686C42.6374 38.9274 41.955 39.6097 40.8962 39.9039C40.3433 40.0568 39.3315 40.1627 37.7786 40.2333C36.2491 40.3156 34.8491 40.3509 33.555 40.3509L31.6844 40.4215C26.755 40.4215 23.6844 40.2333 22.4727 39.9039C21.4139 39.6097 20.7315 38.9274 20.4374 37.8686C20.2844 37.3156 20.1786 36.5745 20.108 35.6333C20.0256 34.6921 19.9903 33.8803 19.9903 33.1745L19.9197 32.1862C19.9197 29.6098 20.108 27.7156 20.4374 26.5039C20.7315 25.445 21.4139 24.7627 22.4727 24.4686C23.0256 24.3156 24.0374 24.2098 25.5903 24.1392C27.1197 24.0568 28.5197 24.0215 29.8139 24.0215L31.6844 23.9509C36.6139 23.9509 39.6844 24.1392 40.8962 24.4686C41.955 24.7627 42.6374 25.445 42.9315 26.5039Z" fill="black"/>
</svg>
